<svg id="svg" version="1.1" viewBox="0 0 254.58984374999997 300" width="254.58984374999997" height="300" xmlns="http://www.w3.org/2000/svg"><svg xmlns="http://www.w3.org/2000/svg"><defs><clipPath id="clip-1"><rect x="0" y="0" transform="scale(0.14648,0.14648)" width="1738" height="2048" fill="none"/></clipPath></defs><g clip-path="url(#clip-1)" fill="none" fill-rule="nonzero" stroke="none" stroke-width="1" stroke-linecap="butt" stroke-linejoin="miter" stroke-miterlimit="10" stroke-dasharray="" stroke-dashoffset="0" font-family="none" font-weight="none" font-size="none" text-anchor="none" style="mix-blend-mode: normal"><path d="M153.13623,65.24546c11.68213,-1.55215 24.68701,6.90615 29.53271,17.32017c1.20703,2.59365 2.04346,5.46416 2.88135,8.19419c6.00293,0.69053 11.12988,1.43628 16.37256,4.75547c4.11328,2.60303 7.24951,5.57344 9.96387,9.62695c4.61279,6.98892 6.24463,15.53071 4.53076,23.72769c-1.62012,8.10044 -7.91895,16.79487 -14.521,21.675c-2.40088,1.77539 -4.10742,2.43604 -6.24756,3.89209l-0.15234,0.104c2.02148,0.88623 4.12207,1.63916 6.14502,2.55469c12.63428,5.72461 21.00732,16.88086 20.90332,31.0708c-0.05713,12.00879 -6.94043,22.93945 -17.74512,28.1792c-6.50684,3.12598 -7.49707,0.65186 -8.27344,8.84033c-0.49072,5.17676 -4.46484,12.29443 -8.23096,15.98438c-6.04102,5.90625 -14.17236,9.18604 -22.62158,9.12305c-10.94238,-0.15088 -18.67822,-4.70947 -26.1208,-12.36621c0.08877,1.15576 0.63105,2.8125 0.98979,3.95508c2.51133,7.99805 7.16909,15.30322 12.26235,21.89355c2.10059,3.03516 6.06592,5.73633 6.8291,9.50684c0.94482,4.66992 -0.92871,9.02344 -5.85059,10.00342c-2.48877,0.47461 -5.06543,-0.04248 -7.17773,-1.44287c-7.51553,-5.08008 -15.51738,-27.44971 -17.302,-36.3252c-0.43037,-2.40527 -0.7481,-4.82959 -0.95215,-7.26562c-1.48037,2.26172 -2.92397,4.67285 -4.64795,6.75879c-14.65356,17.72461 -44.12812,14.48291 -53.89263,-6.55957c-1.12471,-2.42285 -1.63989,-5.09033 -2.602,-7.58643c-4.27837,-0.14502 -8.40483,-0.97412 -12.31113,-2.74219c-7.26152,-3.28564 -13.35806,-9.90234 -16.13394,-17.3833c-5.41831,-14.60303 0.32769,-29.55762 12.44268,-38.67187c1.15342,-0.86719 6.9375,-4.49268 7.03198,-4.69922c-0.53525,-0.33545 -2.04858,-0.70312 -2.77368,-0.95068c-20.19976,-6.86279 -31.07549,-27.44971 -20.93892,-47.41948c3.49658,-6.91919 9.48677,-12.25503 16.76235,-14.93159c1.77686,-0.65449 3.88945,-1.01426 5.78232,-1.63447c0.20933,-0.9394 0.37017,-2.59995 0.43081,-3.58521c0.72231,-11.74146 8.90435,-21.24829 19.44023,-25.77832c7.71387,-3.25166 16.4083,-3.2814 24.14429,-0.08276c9.55283,3.91128 17.07231,12.08848 21.07002,21.49834c3.3019,-15.39316 14.88574,-27.81299 30.97998,-29.23901z" fill="#fefefe"/><path d="M86.86025,79.01279c12.77505,-1.70581 24.84272,9.26016 28.64019,20.79639c3.58755,10.89844 4.26079,22.49136 5.30991,33.84902l2.27827,24.39844c-4.5627,0.8291 -11.5333,1.29199 -16.2731,1.74463c-10.41021,0.99609 -21.554,2.06982 -31.99863,1.90869c-2.85498,-0.1582 -5.57388,-0.34717 -8.41509,-0.67383c-13.74023,-1.58496 -27.04731,-10.65967 -27.57466,-25.74082c-0.26221,-6.28506 2.0061,-12.41294 6.29766,-17.01226c6.03867,-6.4582 12.60894,-7.53267 20.83608,-7.81919c-0.29663,-8.82891 -0.61333,-15.77461 5.39268,-23.34771c3.87554,-4.88672 9.38848,-7.44536 15.50669,-8.10337z" fill="#119040"/><path d="M122.3644,165.72803c0.41763,-0.08936 0.84727,-0.16699 1.19546,0.07471c0.30835,1.4502 0.58403,6.25488 0.74927,8.11963c0.58403,6.2959 1.09995,12.59912 1.5479,18.90527c0.7355,10.99072 2.16797,26.98096 -1.66509,37.31982c-1.275,3.39551 -3.16743,6.52441 -5.58164,9.22998c-4.87485,5.55176 -10.93535,9.31494 -18.48281,9.75146c-6.46948,0.32813 -12.80654,-1.91309 -17.63159,-6.23437c-6.11455,-5.52832 -7.03315,-11.82861 -7.40596,-19.44434c-0.29854,-0.28711 -1.81274,-0.18018 -2.28486,-0.16992c-3.13066,0.06006 -6.30996,-0.11865 -9.38921,-0.73096c-3.56792,-0.73828 -6.92769,-2.25732 -9.83716,-4.4502c-4.70376,-3.54785 -7.76147,-8.85645 -8.46929,-14.70557c-0.88579,-6.78076 1.36494,-13.53076 5.57856,-18.80859c10.94634,-13.7124 30.98379,-14.61475 47.03687,-16.18506c8.22832,-0.74561 16.44272,-1.63623 24.63955,-2.67187z" fill="#119040"/><path d="M154.61426,74.76606c11.26172,-0.7585 18.71045,7.41768 21.47754,17.68682c0.81299,3.01523 1.14844,5.6937 1.66553,8.76372c7.47217,-0.06138 14.17969,-0.47212 20.91357,3.65742c4.30957,2.61519 7.40771,6.83115 8.61475,11.7249c1.54541,6.34102 0.47314,13.03711 -2.97803,18.57715c-5.521,8.92734 -16.64941,13.17598 -26.39209,15.43916c-9.48633,1.96143 -20.94727,2.66748 -30.65332,3.64453c-3.90542,0.39258 -11.13223,1.10303 -14.9228,1.03271l-0.31099,-3.12305c-0.67485,-6.89385 -1.2939,-13.79282 -1.85713,-20.69648c-1.66289,-19.89712 -4.6103,-50.37539 20.78379,-56.15522c1.2627,-0.28726 2.37598,-0.44033 3.65918,-0.55166z" fill="#119040"/><path d="M172.40186,163.26563c14.04053,-0.82031 31.28613,0.94189 38.69092,14.89746c1.04443,1.96729 1.81787,4.5835 2.19727,6.78662c0.99023,5.6543 -0.33545,11.47119 -3.67822,16.13818c-5.35547,7.53809 -13.31396,8.77295 -21.68994,10.22607c0.05127,6.13477 0.3999,12.271 -2.28662,17.97949c-2.73779,5.81689 -6.30908,8.84033 -12.23437,10.99219c-17.33643,4.60547 -29.38125,-7.50293 -34.1354,-22.93066c-1.68164,-5.45654 -2.31313,-10.9585 -2.96396,-16.60547c-0.5811,-4.87061 -1.08223,-9.75 -1.50322,-14.63672c-0.54082,-6.17871 -1.27397,-13.37695 -1.35439,-19.52051c3.45059,-0.104 7.53647,-0.74561 11.05107,-1.05615c9.31362,-0.82471 18.55532,-1.88086 27.90688,-2.27051z" fill="#119040"/></g></svg></svg>